<svg xmlns="http://www.w3.org/2000/svg" viewBox="0 0 937.6 153.09"><defs><style>.cls-1{fill:#48dff3;}</style></defs><g id="Layer_2" data-name="Layer 2"><g id="Layer_1-2" data-name="Layer 1"><path class="cls-1" d="M226.25,123.6q-10.2-3.13-16.31-8.64a7.62,7.62,0,0,1-2.83-6.1,7.09,7.09,0,0,1,1.49-4.55,4.44,4.44,0,0,1,3.58-1.86,9.89,9.89,0,0,1,5.06,1.94,49.48,49.48,0,0,0,30.23,9.83q11.92,0,18.32-4.47t6.41-12.81a10.58,10.58,0,0,0-6-9.83q-6-3.27-19.07-6.25a114.79,114.79,0,0,1-20.55-6.11A30.56,30.56,0,0,1,214,65.44q-4.54-5.88-4.54-15a27.3,27.3,0,0,1,5-16.16,32.64,32.64,0,0,1,13.92-11,50.06,50.06,0,0,1,20.4-3.95,61.21,61.21,0,0,1,19.51,3,41,41,0,0,1,15.19,8.79,7.73,7.73,0,0,1,3,6.1,6.92,6.92,0,0,1-1.56,4.47,4.6,4.6,0,0,1-3.65,1.94,9.82,9.82,0,0,1-4.92-1.94,52.83,52.83,0,0,0-12.88-7.52A40.65,40.65,0,0,0,249,31.86q-11.46,0-17.87,4.69a15.24,15.24,0,0,0-6.4,13q0,7.16,5.66,10.8T248.52,67a149,149,0,0,1,21.22,6.18,32.59,32.59,0,0,1,13,8.78q4.83,5.59,4.84,14.38a26.5,26.5,0,0,1-5,15.86,32.22,32.22,0,0,1-14,10.72,53.2,53.2,0,0,1-20.78,3.8A72.83,72.83,0,0,1,226.25,123.6Z"/><path class="cls-1" d="M369.89,80.41v38.72a6.84,6.84,0,0,1-2,5.29,7.9,7.9,0,0,1-5.58,1.86,7.51,7.51,0,0,1-5.44-1.94,6.87,6.87,0,0,1-2-5.21v-38q0-9.24-3.65-13.56c-2.43-2.87-6.23-4.32-11.39-4.32q-9.09,0-14.6,5.66T319.7,84.13v35a6.87,6.87,0,0,1-2,5.21,7.5,7.5,0,0,1-5.43,1.94,7.77,7.77,0,0,1-5.51-1.94,6.71,6.71,0,0,1-2.09-5.21V58.52a6.71,6.71,0,0,1,2.16-5.14,7.67,7.67,0,0,1,5.44-2,7,7,0,0,1,5.21,1.94,6.83,6.83,0,0,1,1.93,5.06v6.11a24.18,24.18,0,0,1,10-10,30.09,30.09,0,0,1,14.45-3.43Q369.89,51.07,369.89,80.41Z"/><path class="cls-1" d="M403.18,122a31,31,0,0,1-12.51-13.18,43,43,0,0,1-4.4-19.88,43.32,43.32,0,0,1,4.4-20,31.05,31.05,0,0,1,12.51-13.18,40.72,40.72,0,0,1,37.68,0,31.15,31.15,0,0,1,12.5,13.18,43.32,43.32,0,0,1,4.4,20,43,43,0,0,1-4.4,19.88A31.09,31.09,0,0,1,440.86,122a40.72,40.72,0,0,1-37.68,0Zm34.1-13.85q5.28-6.56,5.29-19.21t-5.36-19.14q-5.37-6.62-15.2-6.62t-15.19,6.62q-5.35,6.63-5.36,19.14,0,12.66,5.29,19.21T422,114.66Q432,114.66,437.28,108.11Z"/><path class="cls-1" d="M578.39,51.52a7.54,7.54,0,0,1,5.06,1.93,6.1,6.1,0,0,1,2.24,4.77,5.87,5.87,0,0,1-.6,2.68l-24.72,60.32a7.05,7.05,0,0,1-3,3.65,8.75,8.75,0,0,1-4.61,1.26,8.49,8.49,0,0,1-4.47-1.26,7,7,0,0,1-3-3.65L526,73.41l-18.92,47.81a7.11,7.11,0,0,1-2.9,3.65,8.39,8.39,0,0,1-4.54,1.26,8.84,8.84,0,0,1-4.54-1.26,7.68,7.68,0,0,1-3.21-3.65L467.29,60.9a5.54,5.54,0,0,1-.6-2.53,6,6,0,0,1,2.46-4.92,8.64,8.64,0,0,1,5.44-1.93,6.05,6.05,0,0,1,6.1,4.32l19.22,50.78,19.66-50.34a6.87,6.87,0,0,1,2.82-3.57,7.87,7.87,0,0,1,4.17-1.19,7.66,7.66,0,0,1,4,1.19,6.92,6.92,0,0,1,2.82,3.57l19.66,50L572.28,56C573.38,53,575.41,51.52,578.39,51.52Z"/><path class="cls-1" d="M655.46,55.84a31.65,31.65,0,0,1,11.47,13.4,46.09,46.09,0,0,1,4.09,20,45.48,45.48,0,0,1-4,19.66A30.32,30.32,0,0,1,655.61,122a31.15,31.15,0,0,1-16.9,4.62,29.14,29.14,0,0,1-14.45-3.5,23,23,0,0,1-9.53-10v33.21a6.49,6.49,0,0,1-2,5,7.49,7.49,0,0,1-5.29,1.86,8,8,0,0,1-5.58-1.94,6.65,6.65,0,0,1-2.16-5.21V58.67a7,7,0,0,1,2.08-5.29,7.61,7.61,0,0,1,5.51-2,7.39,7.39,0,0,1,5.36,2,7,7,0,0,1,2.09,5.29v6.1a23.48,23.48,0,0,1,9.53-10.12,28.55,28.55,0,0,1,14.45-3.58A30.15,30.15,0,0,1,655.46,55.84ZM650.32,108q5.37-6.63,5.36-18.84,0-12.36-5.43-19.21t-15.12-6.85q-9.82,0-15.11,6.7T614.73,88.9q0,12.36,5.29,19.06t15.11,6.7Q645,114.66,650.32,108Z"/><path class="cls-1" d="M689.86,124.49a6.56,6.56,0,0,1-2.16-5.36v-92a6.78,6.78,0,0,1,2.16-5.44,8,8,0,0,1,5.44-1.86,7.76,7.76,0,0,1,5.36,1.86,6.9,6.9,0,0,1,2.08,5.44v92a6.67,6.67,0,0,1-2.08,5.36,7.91,7.91,0,0,1-5.36,1.79A8.2,8.2,0,0,1,689.86,124.49Z"/><path class="cls-1" d="M775.79,58.37q7.07,7.31,7.07,22.19v38.57a7,7,0,0,1-1.93,5.29,7.42,7.42,0,0,1-5.36,1.86,6.67,6.67,0,0,1-7.15-7.15v-5.51a21,21,0,0,1-8.42,9.61,24.85,24.85,0,0,1-13,3.35,29,29,0,0,1-13-2.91,23.62,23.62,0,0,1-9.31-8,20,20,0,0,1-3.42-11.47q-.15-8,4-12.58t13.55-6.56q9.39-2,26.06-2h3.43V78.77q0-8.34-3.43-12.06t-11-3.72A34.9,34.9,0,0,0,744,64.33a73.28,73.28,0,0,0-10.12,3.87q-4,2.23-5.66,2.23a4.57,4.57,0,0,1-3.65-1.64,6.11,6.11,0,0,1-1.42-4.17,6.49,6.49,0,0,1,1.27-3.94,13.33,13.33,0,0,1,4.09-3.35,50.78,50.78,0,0,1,12.22-4.54,56.49,56.49,0,0,1,13.55-1.72Q768.71,51.07,775.79,58.37Zm-12.73,51.45q5.21-5.58,5.21-14.37V91.58h-2.68a116.66,116.66,0,0,0-17.87,1q-6.26,1-8.94,3.5t-2.68,7.08A11.19,11.19,0,0,0,740,112a14,14,0,0,0,9.68,3.43A17.52,17.52,0,0,0,763.06,109.82Z"/><path class="cls-1" d="M816,122a31.47,31.47,0,0,1-12.36-13.1,42.19,42.19,0,0,1-4.39-19.66,42.24,42.24,0,0,1,4.54-20,32.84,32.84,0,0,1,12.73-13.4,36.59,36.59,0,0,1,18.77-4.77,41.38,41.38,0,0,1,11.39,1.64,38.81,38.81,0,0,1,10.2,4.47c3.18,2.18,4.77,4.72,4.77,7.59A6.71,6.71,0,0,1,860.31,69a4.18,4.18,0,0,1-3.43,1.71,5.9,5.9,0,0,1-2.68-.67c-.89-.45-2-1.12-3.43-2a41.46,41.46,0,0,0-6.92-3.65,21,21,0,0,0-7.67-1.26q-10.12,0-15.71,6.85t-5.59,19.06q0,12.21,5.51,18.84T836,114.52a21.6,21.6,0,0,0,7.89-1.34,42.59,42.59,0,0,0,7-3.58,27.93,27.93,0,0,1,3.28-1.79,7.35,7.35,0,0,1,3-.74,4.15,4.15,0,0,1,3.42,1.71,6.65,6.65,0,0,1,1.34,4.25,6.81,6.81,0,0,1-1.11,3.79,13.13,13.13,0,0,1-3.8,3.5,35.63,35.63,0,0,1-10.43,4.62,45.36,45.36,0,0,1-12.06,1.64A36.29,36.29,0,0,1,816,122Z"/><path class="cls-1" d="M935.66,108.86A6.33,6.33,0,0,1,937,113q0,4.32-5.36,7.29a47.05,47.05,0,0,1-11.39,4.62,46.31,46.31,0,0,1-11.84,1.64q-17.28,0-27.26-10t-10-27.48a43.08,43.08,0,0,1,4.39-19.81,32.31,32.31,0,0,1,12.36-13.4A34.53,34.53,0,0,1,906,51.07q14.58,0,23.08,9.38t8.49,25.32q0,6-5.36,6h-46q1.49,23.08,22.19,23.08a27.29,27.29,0,0,0,9.53-1.49,68.8,68.8,0,0,0,8.49-3.87q.45-.3,2.46-1.26a8,8,0,0,1,3.35-1A4.2,4.2,0,0,1,935.66,108.86ZM892.47,67.6q-5.21,5.52-6.25,15.49h38.42Q924.19,73,919.5,67.53t-13.18-5.44Q897.68,62.09,892.47,67.6Z"/><path class="cls-1" d="M56.7,3.5A10.74,10.74,0,0,1,64.8,0a10.91,10.91,0,0,1,7.91,3.5q3.51,3.5,3.13,9.39L74.37,56.7l37.19-23.2a13.67,13.67,0,0,1,7-2.21,9.77,9.77,0,0,1,7.55,3.5,11.55,11.55,0,0,1,3.13,7.92q0,6.26-6.63,9.94l-39,20.62L123,93.88q6.63,3.69,6.63,9.94a11.88,11.88,0,0,1-3.32,8.11,10.11,10.11,0,0,1-7.73,3.68,11.85,11.85,0,0,1-6.62-2.21L74.37,89.47,75.84,134a10.51,10.51,0,0,1-3.13,8.83,11.19,11.19,0,0,1-7.91,3.32A11.39,11.39,0,0,1,56.7,143q-3.31-3.14-3-9l1.48-44.55L18,113.4a12.42,12.42,0,0,1-7,2.21,10.14,10.14,0,0,1-7.74-3.68A11.92,11.92,0,0,1,0,103.82q0-6.25,6.63-9.94L46,73.27,7,52.65Q0,49,0,42.34a10.92,10.92,0,0,1,3.13-7.73,10,10,0,0,1,7.55-3.32A15.66,15.66,0,0,1,18,33.5L55.23,56.7,53.75,12.89Q53.39,7,56.7,3.5Z"/></g></g></svg>