<svg width="100" height="100" viewBox="0 0 100 100" fill="none" xmlns="http://www.w3.org/2000/svg">
<path d="M85.9211 44.412C85.7525 38.6319 84.0928 32.9963 81.106 28.0622C78.1848 23.5076 74.026 19.8988 69.127 17.6674C63.2444 15.0787 56.8685 13.8326 50.454 14.018C44.0867 13.8423 37.7595 15.0884 31.9245 17.6674C27.0255 19.8988 22.8667 23.5076 19.9456 28.0622C16.9587 32.9963 15.299 38.6319 15.1305 44.412C15.0391 46.1247 15 48.1273 15 50.4328C15 52.7384 15 54.7805 15.1305 56.5722C15.3149 62.302 16.9019 67.8965 19.7498 72.8561C22.523 77.4681 26.6185 81.1207 31.4939 83.33C37.464 85.9327 43.9279 87.1786 50.4279 86.9794C58.0137 86.9794 64.3729 85.7629 69.5055 83.33C74.3808 81.1207 78.4763 77.4681 81.2495 72.8561C84.0974 67.8965 85.6844 62.302 85.8689 56.5722C85.9602 54.7805 85.9994 52.7252 85.9994 50.4328C85.9994 48.1404 86.0124 46.1247 85.9211 44.412Z" fill="#7CA9FF"/>
</svg>
