<svg width="100" height="100" viewBox="0 0 100 100" fill="none" xmlns="http://www.w3.org/2000/svg">
<path d="M80.9322 45.246C80.7874 40.2577 79.3614 35.394 76.7953 31.1359C74.2855 27.2052 70.7125 24.0907 66.5035 22.165C61.4495 19.9309 55.9715 18.8555 50.4605 19.0156C44.99 18.8639 39.554 19.9393 34.5408 22.165C30.3318 24.0907 26.7588 27.2052 24.249 31.1359C21.6829 35.394 20.2569 40.2577 20.1121 45.246C20.0336 46.7241 20 48.4523 20 50.442C20 52.4318 20 54.1941 20.1121 55.7404C20.2706 60.6853 21.6341 65.5134 24.0808 69.7936C26.4634 73.7739 29.9821 76.9261 34.1708 78.8327C39.3001 81.0789 44.8536 82.1541 50.4381 81.9822C56.9554 81.9822 62.419 80.9324 66.8287 78.8327C71.0173 76.9261 74.536 73.7739 76.9186 69.7936C79.3654 65.5134 80.7289 60.6853 80.8873 55.7404C80.9658 54.1941 80.9994 52.4204 80.9994 50.442C80.9994 48.4637 81.0107 46.7241 80.9322 45.246Z" fill="#7CA9FF"/>
</svg>
