<svg width="180" height="33" viewBox="0 0 180 33" fill="none" xmlns="http://www.w3.org/2000/svg">
<g clip-path="url(#clip0_333_6)">
<path d="M8.94635 26.153C7.56581 26.1814 6.18917 25.9925 4.86404 25.5929C3.88738 25.2985 2.96374 24.8425 2.12929 24.2428C1.50869 23.7986 0.975611 23.2373 0.558336 22.5885C0.257109 22.1443 0.0654332 21.6313 -0.000144187 21.0938C-0.0170557 20.9647 -0.00178637 20.8333 0.0442272 20.7119C0.0902408 20.5906 0.165486 20.4833 0.262882 20.4001C0.433593 20.2365 0.656607 20.1428 0.889821 20.1368H5.10184C5.17201 20.1351 5.2418 20.1477 5.30722 20.1739C5.38403 20.2096 5.45275 20.2614 5.50899 20.326C5.85352 20.5189 6.18034 20.7436 6.48543 20.9973C6.81737 21.2755 7.18022 21.512 7.56636 21.702C8.04266 21.9177 8.55957 22.0216 9.07966 22.0062C9.68669 22.028 10.2877 21.8765 10.8164 21.5685C11.0348 21.451 11.2172 21.2732 11.3432 21.0551C11.4692 20.837 11.5338 20.5871 11.5298 20.3334C11.542 19.9668 11.4242 19.6082 11.1983 19.3245C10.8145 18.9599 10.3529 18.6931 9.85073 18.5456C8.85497 18.217 7.8358 17.9689 6.80251 17.8038C5.64031 17.541 4.51204 17.1389 3.44082 16.6057C2.54689 16.1662 1.78224 15.4904 1.22491 14.6473C0.687147 13.7793 0.415934 12.7647 0.44664 11.7357C0.460366 10.6791 0.796963 9.65392 1.40867 8.80546C2.13219 7.79879 3.10017 7.00572 4.21548 6.50581C5.66107 5.86558 7.22573 5.56041 8.79862 5.61191C10.0489 5.58975 11.2952 5.76232 12.4954 6.12377C13.4439 6.41335 14.3415 6.85657 15.1545 7.43679C15.7827 7.88282 16.3322 8.43601 16.7795 9.07251C17.1059 9.51538 17.3101 10.0408 17.3704 10.5932C17.3802 10.7099 17.3673 10.8275 17.3324 10.9389C17.2975 11.0504 17.2413 11.1536 17.1671 11.2424C17.0929 11.3312 17.0023 11.4038 16.9004 11.456C16.7986 11.5083 16.6877 11.539 16.5741 11.5465H12.7152C12.6139 11.5466 12.5136 11.5264 12.4197 11.4871C12.3285 11.4532 12.2414 11.4084 12.1603 11.3536C11.8431 11.1911 11.5456 10.9906 11.274 10.7565C10.9552 10.4898 10.6083 10.2609 10.2399 10.074C9.77717 9.85554 9.27131 9.75139 8.76259 9.76983C8.20961 9.73099 7.66035 9.88805 7.20605 10.2149C7.02947 10.3523 6.88709 10.5308 6.79062 10.7359C6.69416 10.9409 6.64636 11.1666 6.65118 11.3944C6.65167 11.7264 6.76226 12.0483 6.96465 12.3069C7.32322 12.6693 7.77006 12.9256 8.25816 13.0487C9.25798 13.3668 10.276 13.6207 11.3064 13.8091C12.7321 13.9948 14.1117 14.4526 15.3743 15.1592C16.2729 15.667 17.0202 16.4171 17.5361 17.329C17.961 18.1245 18.1841 19.0175 18.1847 19.9254C18.1965 21.0994 17.8147 22.2417 17.1038 23.1597C16.2808 24.1745 15.1989 24.9324 13.9799 25.3481C12.3605 25.9168 10.657 26.1892 8.94635 26.153V26.153Z" fill="#7CA9FF"/>
<path d="M20.624 25.7709C20.4998 25.7758 20.376 25.7531 20.261 25.7045C20.146 25.6559 20.0425 25.5824 19.9574 25.489C19.7896 25.3099 19.6965 25.0703 19.698 24.8214V6.94344C19.6929 6.81686 19.7134 6.69057 19.7581 6.57254C19.8029 6.45452 19.8709 6.34733 19.9579 6.25775C20.045 6.16817 20.1491 6.09814 20.2637 6.05209C20.3784 6.00603 20.5011 5.98496 20.624 5.9902H24.8613C25.1147 5.98327 25.3606 6.07919 25.5459 6.25725C25.6367 6.3449 25.7083 6.45139 25.7562 6.56968C25.804 6.68797 25.8269 6.81537 25.8233 6.94344V7.13261C25.8182 7.23488 25.843 7.33639 25.8945 7.42399C25.9461 7.5116 26.022 7.58127 26.1124 7.62401C26.2028 7.66675 26.3036 7.68059 26.4017 7.66374C26.4998 7.64689 26.5908 7.60012 26.6628 7.52948C28.1399 6.22761 30.0376 5.54335 31.981 5.61187C33.3032 5.58754 34.6074 5.92959 35.757 6.6022C36.8746 7.28399 37.7729 8.28872 38.3405 9.4916C39.0096 10.9662 39.3295 12.5831 39.2737 14.2096V24.8214C39.2752 25.0703 39.1821 25.3099 39.0142 25.489C38.9296 25.5819 38.8267 25.6551 38.7123 25.7037C38.598 25.7523 38.4749 25.7752 38.3513 25.7709H33.7033C33.5828 25.7717 33.4634 25.7471 33.3525 25.6987C33.2415 25.6502 33.1414 25.5788 33.0583 25.489C32.9708 25.4027 32.9011 25.299 32.8535 25.1843C32.8058 25.0696 32.7811 24.9462 32.7809 24.8214V14.4359C32.7809 13.2465 32.5034 12.3278 31.9486 11.68C31.3937 11.0321 30.5746 10.7082 29.4912 10.7082C29.0441 10.6868 28.5975 10.7622 28.1804 10.9296C27.7634 11.097 27.3851 11.3526 27.07 11.68C26.4694 12.3254 26.168 13.244 26.1656 14.4359V24.8214C26.161 25.0717 26.0623 25.3105 25.8903 25.4875C25.7183 25.6646 25.4864 25.7662 25.2432 25.7709H20.624Z" fill="#7CA9FF"/>
<path d="M60.5682 14.1688C60.5217 12.5415 60.0634 10.9549 59.2387 9.56581C58.4321 8.28351 57.2837 7.26751 55.931 6.63932C54.3067 5.9105 52.5462 5.55968 50.775 5.61189C49.0168 5.56241 47.2698 5.91324 45.6586 6.63932C44.3059 7.26751 43.1575 8.28351 42.3509 9.56581C41.5262 10.9549 41.0679 12.5415 41.0214 14.1688C40.9962 14.651 40.9854 15.2148 40.9854 15.8639C40.9854 16.513 40.9854 17.0879 41.0214 17.5923C41.0723 19.2055 41.5105 20.7805 42.2969 22.1768C43.0626 23.4752 44.1935 24.5036 45.5397 25.1255C47.1882 25.8583 48.973 26.2091 50.7678 26.153C52.8624 26.153 54.6183 25.8105 56.0355 25.1255C57.3817 24.5036 58.5125 23.4752 59.2783 22.1768C60.0647 20.7805 60.5029 19.2055 60.5538 17.5923C60.579 17.0879 60.5898 16.5093 60.5898 15.8639C60.5898 15.2185 60.5934 14.651 60.5682 14.1688Z" fill="#7CA9FF"/>
<path d="M67.295 25.7709C67.1477 25.7837 66.9995 25.7653 66.8595 25.7168C66.7194 25.6683 66.5905 25.5908 66.4807 25.489C66.306 25.2943 66.168 25.0679 66.0735 24.8214L60.7517 7.21048C60.7069 7.0921 60.6825 6.96658 60.6797 6.83956C60.6796 6.7279 60.7026 6.6175 60.7474 6.51578C60.7921 6.41406 60.8575 6.32338 60.9391 6.24982C61.0968 6.09046 61.309 6.00122 61.53 6.0013H65.3349C65.6113 5.98511 65.8829 6.08097 66.0915 6.26836C66.2569 6.40906 66.3815 6.59382 66.4518 6.80247L69.0929 16.0753C69.1251 16.1796 69.1887 16.2708 69.2745 16.3355C69.3603 16.4001 69.464 16.435 69.5703 16.435C69.6767 16.435 69.7803 16.4001 69.8662 16.3355C69.952 16.2708 70.0156 16.1796 70.0477 16.0753L72.8798 6.83956C72.9528 6.62706 73.0767 6.43697 73.2401 6.28691C73.347 6.18727 73.4722 6.11067 73.6084 6.06162C73.7445 6.01257 73.8888 5.99206 74.0328 6.0013H76.4721C76.7692 5.98441 77.0611 6.08679 77.2864 6.28691C77.4528 6.42866 77.5693 6.62287 77.6179 6.83956L80.4499 16.0753C80.482 16.1796 80.5456 16.2708 80.6315 16.3355C80.7173 16.4001 80.8209 16.435 80.9273 16.435C81.0337 16.435 81.1373 16.4001 81.2231 16.3355C81.309 16.2708 81.3726 16.1796 81.4047 16.0753L84.0494 6.80247C84.1192 6.59356 84.2439 6.40867 84.4097 6.26836C84.6183 6.08097 84.8899 5.98511 85.1663 6.0013H88.9748C89.1955 6.00278 89.4072 6.09179 89.5657 6.24982C89.6461 6.32417 89.7105 6.41509 89.7545 6.51669C89.7986 6.61829 89.8214 6.7283 89.8215 6.83956C89.8204 6.96676 89.7959 7.0926 89.7495 7.21048L84.4025 24.8214C84.3301 25.0744 84.1961 25.3042 84.0134 25.489C83.9003 25.5903 83.7688 25.6674 83.6266 25.7158C83.4843 25.7642 83.334 25.7829 83.1846 25.7709H79.859C79.5624 25.7888 79.2705 25.6878 79.0447 25.489C78.8544 25.307 78.714 25.0768 78.6375 24.8214L75.7118 15.849C75.678 15.7473 75.6141 15.6591 75.5292 15.5966C75.4442 15.5341 75.3424 15.5005 75.238 15.5005C75.1336 15.5005 75.0318 15.5341 74.9468 15.5966C74.8619 15.6591 74.798 15.7473 74.7642 15.849L71.8385 24.8214C71.7637 25.0776 71.623 25.3083 71.4313 25.489C71.207 25.6879 70.9162 25.789 70.6206 25.7709H67.295Z" fill="#7CA9FF"/>
<path d="M92.0521 33.0111C91.9277 33.0148 91.8039 32.9912 91.689 32.942C91.5741 32.8928 91.4706 32.819 91.3855 32.7255C91.2199 32.5467 91.1282 32.3087 91.1297 32.0616V6.94346C91.1255 6.81728 91.146 6.69151 91.1899 6.57363C91.2339 6.45575 91.3004 6.34817 91.3855 6.25728C91.4731 6.16845 91.5774 6.09895 91.6921 6.05303C91.8067 6.00711 91.9292 5.98574 92.0521 5.99022H96.2281C96.4689 5.98805 96.7007 6.08406 96.873 6.25728C96.9646 6.34432 97.0368 6.4507 97.0846 6.56914C97.1325 6.68757 97.155 6.81526 97.1505 6.94346V7.04732C97.1494 7.14961 97.178 7.2499 97.2325 7.33544C97.287 7.42097 97.365 7.48788 97.4566 7.52765C97.5481 7.56741 97.6491 7.57825 97.7466 7.55876C97.8442 7.53928 97.9339 7.49036 98.0044 7.41823C98.4467 7.02227 98.93 6.67771 99.4456 6.39081C100.511 5.84121 101.692 5.57351 102.883 5.61189C103.991 5.59003 105.092 5.79034 106.126 6.20164C107.048 6.58398 107.876 7.17465 108.547 7.93009C109.25 8.73565 109.785 9.68122 110.118 10.7082C110.511 11.9208 110.723 13.1876 110.749 14.4656C110.774 14.9737 110.788 15.4448 110.788 15.875C110.788 16.3053 110.788 16.7763 110.749 17.2808C110.723 18.5427 110.512 19.7934 110.122 20.9899C109.791 22.0142 109.263 22.9591 108.569 23.768C107.899 24.5332 107.073 25.1372 106.151 25.5373C105.113 25.9731 104 26.1864 102.879 26.1641C101.791 26.189 100.711 25.9621 99.7195 25.5002C99.2088 25.2488 98.7347 24.9255 98.3107 24.5395C98.2397 24.4753 98.1524 24.4333 98.0591 24.4184C97.9657 24.4034 97.8702 24.4161 97.7836 24.4551C97.697 24.494 97.623 24.5575 97.5702 24.6381C97.5175 24.7188 97.4881 24.8132 97.4855 24.9104V32.0505C97.4877 32.2984 97.3944 32.537 97.2261 32.7144C97.1424 32.8094 97.0399 32.885 96.9256 32.9362C96.8113 32.9873 96.6878 33.0129 96.5632 33.0111H92.0521ZM100.887 21.0566C101.579 21.0989 102.266 20.9117 102.847 20.5225C103.321 20.1581 103.675 19.6534 103.863 19.076C104.079 18.4258 104.208 17.7481 104.245 17.0619C104.295 16.2765 104.295 15.4884 104.245 14.7029C104.206 14.0154 104.077 13.3365 103.859 12.6852C103.671 12.1093 103.316 11.6061 102.843 11.2423C102.263 10.854 101.578 10.6668 100.887 10.7082C100.206 10.6769 99.5329 10.8705 98.9664 11.2609C98.4785 11.6166 98.1027 12.1118 97.8855 12.6852C97.6594 13.2951 97.5234 13.9365 97.4819 14.588C97.4567 15.0701 97.4423 15.5412 97.4423 15.9974C97.4423 16.4536 97.4423 16.9358 97.4819 17.4403C97.4995 18.0519 97.6368 18.6537 97.8855 19.2095C98.1288 19.7504 98.513 20.2112 98.9952 20.5411C99.5602 20.9069 100.22 21.0868 100.887 21.0566V21.0566Z" fill="#7CA9FF"/>
<path d="M113.595 25.7709C113.472 25.7756 113.349 25.7539 113.234 25.7073C113.119 25.6607 113.015 25.5902 112.928 25.5002C112.847 25.4171 112.783 25.3183 112.739 25.2094C112.695 25.1006 112.672 24.9838 112.673 24.8659V0.908715C112.669 0.787013 112.689 0.665814 112.734 0.552801C112.778 0.439787 112.844 0.337425 112.928 0.252201C113.11 0.0816745 113.349 -0.00886165 113.595 -1.84542e-05H117.955C118.2 -0.00886165 118.44 0.0816745 118.621 0.252201C118.707 0.336682 118.774 0.438827 118.819 0.551956C118.864 0.665086 118.885 0.786655 118.881 0.908715V24.8511C118.881 24.9693 118.858 25.0864 118.814 25.1954C118.769 25.3044 118.704 25.403 118.621 25.4853C118.534 25.5754 118.43 25.6459 118.316 25.6925C118.201 25.7391 118.078 25.7607 117.955 25.7561L113.595 25.7709Z" fill="#7CA9FF"/>
<path d="M127.229 26.1529C125.999 26.1752 124.781 25.9088 123.666 25.374C122.672 24.901 121.813 24.1745 121.169 23.2635C120.557 22.3878 120.234 21.3337 120.246 20.2554C120.224 19.4142 120.408 18.5808 120.783 17.8329C121.158 17.0851 121.711 16.4472 122.39 15.9788C123.817 14.9254 125.713 14.2083 128.079 13.8275L132.277 13.171C132.395 13.1524 132.502 13.0908 132.579 12.9975C132.657 12.9043 132.699 12.7855 132.699 12.6629V12.5739C132.747 11.8322 132.552 11.0953 132.144 10.4819C131.776 9.99973 131.099 9.75245 130.112 9.74009C129.524 9.71207 128.942 9.8575 128.432 10.1592C128 10.437 127.649 10.8306 127.416 11.2979C127.315 11.4545 127.177 11.5823 127.016 11.6692C126.854 11.7561 126.673 11.7994 126.49 11.7949H122.354C122.238 11.8021 122.121 11.7836 122.013 11.7408C121.904 11.6979 121.805 11.6317 121.724 11.5464C121.652 11.4687 121.598 11.3753 121.566 11.2732C121.534 11.1711 121.525 11.0629 121.54 10.9567C121.571 10.3943 121.744 9.84983 122.041 9.3766C122.451 8.70353 122.975 8.11079 123.586 7.62589C124.382 6.9842 125.284 6.49545 126.249 6.18305C127.531 5.77029 128.87 5.57731 130.212 5.61185C131.588 5.58187 132.959 5.77462 134.277 6.18305C135.302 6.50024 136.248 7.04462 137.047 7.77797C137.75 8.44464 138.288 9.2735 138.618 10.1963C138.947 11.1801 139.103 12.2162 139.08 13.2563V24.8214C139.075 25.0723 138.976 25.3116 138.803 25.4888C138.63 25.6659 138.397 25.7671 138.154 25.7709H133.884C133.76 25.7758 133.636 25.7531 133.521 25.7045C133.406 25.6559 133.302 25.5824 133.217 25.489C133.05 25.3098 132.956 25.0702 132.958 24.8214V24.8214C132.955 24.7241 132.926 24.6297 132.873 24.5491C132.82 24.4684 132.746 24.4049 132.66 24.366C132.573 24.3271 132.478 24.3144 132.384 24.3293C132.291 24.3443 132.204 24.3863 132.133 24.4504C131.989 24.584 131.83 24.7101 131.664 24.8214C131.085 25.2486 130.443 25.5768 129.762 25.7931C128.941 26.0456 128.086 26.167 127.229 26.1529V26.1529ZM128.966 21.817C129.641 21.8263 130.308 21.6632 130.908 21.3422C131.502 21.0068 131.98 20.4879 132.273 19.8586C132.632 19.068 132.804 18.2011 132.774 17.3289V16.7948L129.632 17.366C128.476 17.57 127.629 17.8779 127.11 18.297C126.87 18.4591 126.672 18.6789 126.534 18.9374C126.395 19.1959 126.319 19.4854 126.314 19.7807C126.298 20.1844 126.426 20.5802 126.674 20.8934C126.936 21.2101 127.272 21.4527 127.651 21.5981C128.071 21.7569 128.518 21.8312 128.966 21.817V21.817Z" fill="#7CA9FF"/>
<path d="M150.325 26.153C148.658 26.1875 147.004 25.8364 145.486 25.1255C144.122 24.4809 142.963 23.4522 142.142 22.1582C141.28 20.7403 140.812 19.1057 140.791 17.4328C140.766 17.0285 140.755 16.5167 140.755 15.8935C140.755 15.2704 140.755 14.7586 140.791 14.3543C140.82 12.6904 141.279 11.0645 142.121 9.64369C142.936 8.34395 144.098 7.31373 145.468 6.67639C146.993 5.96712 148.652 5.61616 150.325 5.64897C151.818 5.61322 153.303 5.86481 154.706 6.39079C155.798 6.80803 156.801 7.43768 157.661 8.24535C158.349 8.89566 158.924 9.66208 159.362 10.5116C159.697 11.1226 159.907 11.798 159.978 12.496C159.99 12.6206 159.973 12.7465 159.928 12.8628C159.883 12.9792 159.811 13.0824 159.718 13.1636C159.542 13.3444 159.304 13.4469 159.055 13.4492H154.371C154.147 13.4646 153.924 13.3961 153.744 13.2564C153.571 13.0972 153.433 12.9027 153.337 12.6852C153.129 12.0259 152.736 11.4442 152.209 11.0123C151.689 10.6634 151.075 10.4909 150.455 10.519C150.025 10.4888 149.595 10.5615 149.197 10.7314C148.799 10.9013 148.446 11.1638 148.163 11.4982C147.633 12.1548 147.345 13.1711 147.295 14.5397C147.27 15.556 147.27 16.4536 147.295 17.24C147.369 18.6346 147.665 19.6496 148.181 20.2851C148.463 20.609 148.812 20.8628 149.203 21.0273C149.593 21.1918 150.015 21.2627 150.437 21.2347C151.075 21.2679 151.707 21.0884 152.238 20.7228C152.747 20.2893 153.122 19.7134 153.319 19.0648C153.416 18.849 153.554 18.6558 153.726 18.4973C153.906 18.3576 154.129 18.2891 154.353 18.3045H159.037C159.283 18.3048 159.52 18.4001 159.7 18.5715C159.804 18.6551 159.884 18.7653 159.933 18.891C159.981 19.0167 159.997 19.1535 159.978 19.2874C159.929 19.7975 159.808 20.2975 159.617 20.771C159.354 21.4251 159.005 22.039 158.58 22.5959C158.057 23.27 157.435 23.8546 156.735 24.3281C155.897 24.9004 154.981 25.3428 154.018 25.6411C152.819 26.0022 151.574 26.1747 150.325 26.153V26.153Z" fill="#7CA9FF"/>
<path d="M170.391 26.153C167.482 26.153 165.166 25.3419 163.444 23.7198C161.722 22.0977 160.822 19.688 160.745 16.4907V15.1591C160.77 13.3601 161.22 11.5944 162.057 10.0146C162.828 8.60777 163.984 7.46604 165.382 6.73203C166.93 5.95909 168.635 5.57761 170.355 5.61929C172.516 5.61929 174.308 6.06315 175.73 6.95087C177.118 7.80497 178.23 9.06171 178.926 10.5635C179.664 12.188 180.033 13.9635 180.007 15.7563V16.691C180.011 16.8173 179.989 16.943 179.943 17.0603C179.897 17.1775 179.828 17.2837 179.741 17.3722C179.653 17.4607 179.549 17.5295 179.434 17.5744C179.319 17.6193 179.197 17.6393 179.074 17.6331H167.249V17.8965C167.265 18.5871 167.396 19.2697 167.638 19.9142C167.846 20.4855 168.204 20.9862 168.672 21.3608C169.161 21.7233 169.753 21.9073 170.355 21.8838C170.779 21.8979 171.201 21.8142 171.59 21.639C171.895 21.494 172.176 21.3013 172.423 21.0678C172.608 20.8962 172.783 20.7142 172.949 20.5225C173.091 20.3241 173.27 20.1565 173.475 20.0292C173.683 19.9537 173.903 19.921 174.123 19.9328H178.714C178.938 19.9256 179.156 20.008 179.323 20.1627C179.402 20.2395 179.462 20.335 179.497 20.4411C179.532 20.5471 179.542 20.6604 179.524 20.771C179.447 21.3367 179.232 21.8729 178.898 22.3289C178.419 23.0143 177.836 23.6155 177.172 24.1092C176.319 24.7674 175.362 25.2693 174.343 25.5929C173.063 25.9927 171.729 26.1817 170.391 26.153V26.153ZM167.249 13.8647H173.496V13.7905C173.511 13.0562 173.389 12.3259 173.136 11.6392C172.922 11.0739 172.545 10.5897 172.055 10.252C171.543 9.91392 170.945 9.74205 170.337 9.75867C169.746 9.74352 169.165 9.91574 168.672 10.252C168.188 10.596 167.812 11.0782 167.591 11.6392C167.333 12.3244 167.21 13.0558 167.231 13.7905L167.249 13.8647Z" fill="#7CA9FF"/>
</g>
<defs>
<clipPath id="clip0_333_6">
<rect width="180" height="33" fill="white"/>
</clipPath>
</defs>
</svg>
